<?xml version="1.0" encoding="UTF-8" standalone="no"?>
<svg
   version="1.1"
   viewBox="0 0 450 150"
   id="svg92"
   sodipodi:docname="liquidity-labs-logo.svg"
   inkscape:version="1.1.2 (0a00cf5339, 2022-02-04)"
   width="450"
   height="150"
   xmlns:inkscape="http://www.inkscape.org/namespaces/inkscape"
   xmlns:sodipodi="http://sodipodi.sourceforge.net/DTD/sodipodi-0.dtd"
   xmlns="http://www.w3.org/2000/svg"
   xmlns:svg="http://www.w3.org/2000/svg">
  <defs
     id="defs96" />
  <sodipodi:namedview
     id="namedview94"
     pagecolor="#ffffff"
     bordercolor="#666666"
     borderopacity="1.0"
     inkscape:pageshadow="2"
     inkscape:pageopacity="0.0"
     inkscape:pagecheckerboard="0"
     showgrid="false"
     inkscape:zoom="2.4692169"
     inkscape:cx="237.11971"
     inkscape:cy="190.14125"
     inkscape:window-width="3840"
     inkscape:window-height="2123"
     inkscape:window-x="0"
     inkscape:window-y="0"
     inkscape:window-maximized="1"
     inkscape:current-layer="svg92" />
  <g
     id="g70378"
     transform="translate(-177.89305,-154.19312)">
    <path
       fill="#023e8a"
       d="m 232.4,206.2 -0.13,-8.84 c -0.01,-0.79 -0.64,-1.42 -1.4,-1.39 q -2.76,0.13 -4.11,-1.34 -0.94,-1.02 -0.98,-3.66 -0.09,-6.12 0,-12.24 0.04,-2.59 0.84,-3.64 1.23,-1.59 3.88,-1.59 17.88,0 35.75,0 2.46,0 3.46,2.01 0.53,1.07 0.54,3.58 0.02,5.7 0.17,11.41 0.16,6.27 -5.98,5.52 c -0.37,-0.04 -0.69,0.24 -0.69,0.61 v 10.12 c 0,0.32 0.13,0.63 0.36,0.86 q 15.08,15.3 30.26,30.51 1.95,1.95 1.33,4.17 -0.36,1.24 -2.29,3.18 -20.61,20.6 -41.21,41.21 -1.86,1.85 -3.15,2.24 -2.27,0.69 -4.11,-1.11 -8.7,-8.47 -43.94,-44.06 -1.29,-1.3 -0.84,-3.3 0.27,-1.26 1.67,-2.65 14.47,-14.47 29.97,-29.98 c 0.4,-0.39 0.61,-0.98 0.6,-1.62 z m 53.11,35.16 c 0.2,-0.2 0.2,-0.52 0,-0.72 l -29.19,-29.19 c -0.48,-0.48 -0.75,-1.13 -0.76,-1.82 q -0.09,-6.84 -0.07,-14.11 0.01,-4.19 0.08,-4.54 0.6,-2.92 4.04,-3.2 1.25,-0.1 1.68,-0.42 0.87,-0.64 0.6,-1.89 -0.11,-0.48 -0.04,-0.96 0.2,-1.36 -0.58,-2.34 c -0.18,-0.23 -0.49,-0.36 -0.83,-0.36 h -25.13 c -0.32,0 -0.6,0.18 -0.71,0.45 q -0.62,1.54 -0.1,4.31 c 0.13,0.65 0.72,1.11 1.38,1.05 q 2.25,-0.2 3.64,1.58 0.91,1.18 0.94,3.46 0.08,8.11 0.04,16.81 c -0.01,0.75 -0.3,1.46 -0.83,1.99 l -29.18,29.18 c -0.24,0.23 -0.24,0.61 0,0.85 l 36.95,36.83 c 0.31,0.31 0.81,0.31 1.12,0 z"
       id="path58" />
    <path
       fill="#ffffff"
       d="m 285.51,241.36 -36.95,36.96 c -0.31,0.31 -0.81,0.31 -1.12,0 l -36.95,-36.83 c -0.24,-0.24 -0.24,-0.62 0,-0.85 l 29.18,-29.18 c 0.53,-0.53 0.82,-1.24 0.83,-1.99 q 0.04,-8.7 -0.04,-16.81 -0.03,-2.28 -0.94,-3.46 -1.39,-1.78 -3.64,-1.58 c -0.66,0.06 -1.25,-0.4 -1.38,-1.05 q -0.52,-2.77 0.1,-4.31 c 0.11,-0.27 0.39,-0.45 0.71,-0.45 h 25.13 c 0.34,0 0.65,0.13 0.83,0.36 q 0.78,0.98 0.58,2.34 -0.07,0.48 0.04,0.96 0.27,1.25 -0.6,1.89 -0.43,0.32 -1.68,0.42 -3.44,0.28 -4.04,3.2 -0.07,0.35 -0.08,4.54 -0.02,7.27 0.07,14.11 c 0.01,0.69 0.28,1.34 0.76,1.82 l 29.19,29.19 c 0.2,0.2 0.2,0.52 0,0.72 z m -61.05,2.14 5.57,5.67 q 1.94,1.97 3.52,-0.34 2.03,-2.96 4.05,-1.03 1.26,1.21 1.85,1.87 0.93,1.04 1.05,2.54 l -2.63,2.7 c -0.22,0.22 -0.34,0.55 -0.32,0.89 q 0.05,1.45 1.41,2.2 l 7.98,8.07 c 0.51,0.51 1.32,0.53 1.86,0.05 q 4.95,-4.38 9.64,-9.68 0.44,-0.51 -0.19,-0.98 -1.01,-1.93 -2.75,-3.25 -0.42,-0.88 0.29,-1.71 1.25,-1.1 2.35,-2.36 2.13,-2.42 4.24,0.78 1.46,2.2 3.21,0.47 l 4.95,-4.89 3.61,-3.6 q 1.44,-1.43 -0.1,-2.98 l -8.24,-8.24 c -0.7,-0.7 -1.82,-0.73 -2.55,-0.07 q -3.85,3.46 -7.5,7.23 -0.05,0.06 -0.95,0.89 -2.14,1.95 0.55,3.9 1.38,1 1.68,2.62 l -4.08,4.25 q -1.36,0.03 -2.4,-1.31 -2.58,-3.35 -5.44,0.41 c -0.55,0.73 -1.57,0.93 -2.36,0.47 q -2.32,-1.37 -3.8,-4.57 1.9,-1.58 3.01,-3.74 c 0.13,-0.27 0.1,-0.59 -0.09,-0.83 q -4.06,-4.98 -9.16,-9.3 c -0.76,-0.64 -1.88,-0.6 -2.58,0.11 l -8.25,8.24 q -1.52,1.52 -0.12,2.89 z"
       id="path60" />
    <path
       fill="#6dd5e9"
       d="m 238.96,243.5 q -7.25,-0.54 -14.5,0 l -2.69,-2.63 q -1.4,-1.37 0.12,-2.89 l 8.25,-8.24 c 0.7,-0.71 1.82,-0.75 2.58,-0.11 q 5.1,4.32 9.16,9.3 c 0.19,0.24 0.22,0.56 0.09,0.83 q -1.11,2.16 -3.01,3.74 z"
       id="path62" />
    <path
       fill="#6dd5e9"
       d="m 270.54,244.5 q -6.75,-0.75 -13.5,-0.25 -0.3,-1.62 -1.68,-2.62 -2.69,-1.95 -0.55,-3.9 0.9,-0.83 0.95,-0.89 3.65,-3.77 7.5,-7.23 c 0.73,-0.66 1.85,-0.63 2.55,0.07 l 8.24,8.24 q 1.54,1.55 0.1,2.98 z"
       id="path64" />
    <path
       fill="#45c9e3"
       d="m 238.96,243.5 q 1.48,3.2 3.8,4.57 c 0.79,0.46 1.81,0.26 2.36,-0.47 q 2.86,-3.76 5.44,-0.41 1.04,1.34 2.4,1.31 0.52,0.58 1.28,0.44 2.25,-0.41 1.55,1.56 -0.71,0.83 -0.29,1.71 -1.79,1.92 -4.81,1.6 -1.27,-0.13 -5.69,-0.06 -3,0.05 -4.5,-1.54 -0.12,-1.5 -1.05,-2.54 -0.59,-0.66 -1.85,-1.87 -2.02,-1.93 -4.05,1.03 -1.58,2.31 -3.52,0.34 l -5.57,-5.67 q 7.25,-0.54 14.5,0 z"
       id="path66" />
    <path
       fill="#45c9e3"
       d="m 270.54,244.5 -4.95,4.89 q -1.75,1.73 -3.21,-0.47 -2.11,-3.2 -4.24,-0.78 -1.1,1.26 -2.35,2.36 0.7,-1.97 -1.55,-1.56 -0.76,0.14 -1.28,-0.44 l 4.08,-4.25 q 6.75,-0.5 13.5,0.25 z"
       id="path68" />
    <path
       fill="#2ac1df"
       d="m 240.5,252.21 q 1.5,1.59 4.5,1.54 4.42,-0.07 5.69,0.06 3.02,0.32 4.81,-1.6 1.74,1.32 2.75,3.25 -1.35,-0.14 -1.75,1.3 c -0.2,0.71 -0.89,1.19 -1.69,1.2 L 238.96,258 q -1.36,-0.75 -1.41,-2.2 c -0.02,-0.34 0.1,-0.67 0.32,-0.89 z"
       id="path70" />
    <path
       fill="#18bbdc"
       d="m 258.25,255.46 q 0.63,0.47 0.19,0.98 -4.69,5.3 -9.64,9.68 c -0.54,0.48 -1.35,0.46 -1.86,-0.05 l -7.98,-8.07 15.85,-0.04 c 0.8,-0.01 1.49,-0.49 1.69,-1.2 q 0.4,-1.44 1.75,-1.3 z"
       id="path72" />
  </g>
  <g
     id="g70368"
     transform="matrix(1.1243563,0,0,1.1243563,-23.183957,-360.72182)">
    <text
       xml:space="preserve"
       style="font-size:40px;line-height:1.25;font-family:'DejaVu Sans';-inkscape-font-specification:'DejaVu Sans';fill:#023e8a"
       x="141.26328"
       y="401.86758"
       id="text5222"><tspan
         sodipodi:role="line"
         id="tspan5220"
         x="141.26328"
         y="401.86758"
         style="font-style:normal;font-variant:normal;font-weight:bold;font-stretch:semi-condensed;font-size:40px;font-family:'DejaVu Sans';-inkscape-font-specification:'DejaVu Sans, Bold Semi-Condensed';font-variant-ligatures:normal;font-variant-caps:normal;font-variant-numeric:normal;font-variant-east-asian:normal;fill:#023e8a">Liquidity</tspan></text>
    <text
       xml:space="preserve"
       style="font-style:normal;font-variant:normal;font-weight:normal;font-stretch:semi-condensed;font-size:40px;line-height:1.25;font-family:'DejaVu Sans';-inkscape-font-specification:'DejaVu Sans, Semi-Condensed';font-variant-ligatures:normal;font-variant-caps:normal;font-variant-numeric:normal;font-variant-east-asian:normal;fill:#023e8a"
       x="319.20248"
       y="401.86758"
       id="text69886"><tspan
         sodipodi:role="line"
         id="tspan69884"
         x="319.20248"
         y="401.86758"
         style="font-style:normal;font-variant:normal;font-weight:normal;font-stretch:semi-condensed;font-size:40px;font-family:'DejaVu Sans';-inkscape-font-specification:'DejaVu Sans, Semi-Condensed';font-variant-ligatures:normal;font-variant-caps:normal;font-variant-numeric:normal;font-variant-east-asian:normal;fill:#023e8a">Labs</tspan></text>
  </g>
</svg>
