<?xml version="1.0" encoding="UTF-8"?>
<svg version="1.1" viewBox="0 0 500 500" xmlns="http://www.w3.org/2000/svg">
<g transform="translate(-144.14)">
<path d="m232.4 206.2-0.13-8.84c-0.01-0.79-0.64-1.42-1.4-1.39q-2.76 0.13-4.11-1.34-0.94-1.02-0.98-3.66-0.09-6.12 0-12.24 0.04-2.59 0.84-3.64 1.23-1.59 3.88-1.59 17.88 0 35.75 0 2.46 0 3.46 2.01 0.53 1.07 0.54 3.58 0.02 5.7 0.17 11.41 0.16 6.27-5.98 5.52c-0.37-0.04-0.69 0.24-0.69 0.61v10.12c0 0.32 0.13 0.63 0.36 0.86q15.08 15.3 30.26 30.51 1.95 1.95 1.33 4.17-0.36 1.24-2.29 3.18-20.61 20.6-41.21 41.21-1.86 1.85-3.15 2.24-2.27 0.69-4.11-1.11-8.7-8.47-43.94-44.06-1.29-1.3-0.84-3.3 0.27-1.26 1.67-2.65 14.47-14.47 29.97-29.98c0.4-0.39 0.61-0.98 0.6-1.62zm53.11 35.16c0.2-0.2 0.2-0.52 0-0.72l-29.19-29.19c-0.48-0.48-0.75-1.13-0.76-1.82q-0.09-6.84-0.07-14.11 0.01-4.19 0.08-4.54 0.6-2.92 4.04-3.2 1.25-0.1 1.68-0.42 0.87-0.64 0.6-1.89-0.11-0.48-0.04-0.96 0.2-1.36-0.58-2.34c-0.18-0.23-0.49-0.36-0.83-0.36h-25.13c-0.32 0-0.6 0.18-0.71 0.45q-0.62 1.54-0.1 4.31c0.13 0.65 0.72 1.11 1.38 1.05q2.25-0.2 3.64 1.58 0.91 1.18 0.94 3.46 0.08 8.11 0.04 16.81c-0.01 0.75-0.3 1.46-0.83 1.99l-29.18 29.18c-0.24 0.23-0.24 0.61 0 0.85l36.95 36.83c0.31 0.31 0.81 0.31 1.12 0z" fill="#023e8a"/>
<path d="m285.51 241.36-36.95 36.96c-0.31 0.31-0.81 0.31-1.12 0l-36.95-36.83c-0.24-0.24-0.24-0.62 0-0.85l29.18-29.18c0.53-0.53 0.82-1.24 0.83-1.99q0.04-8.7-0.04-16.81-0.03-2.28-0.94-3.46-1.39-1.78-3.64-1.58c-0.66 0.06-1.25-0.4-1.38-1.05q-0.52-2.77 0.1-4.31c0.11-0.27 0.39-0.45 0.71-0.45h25.13c0.34 0 0.65 0.13 0.83 0.36q0.78 0.98 0.58 2.34-0.07 0.48 0.04 0.96 0.27 1.25-0.6 1.89-0.43 0.32-1.68 0.42-3.44 0.28-4.04 3.2-0.07 0.35-0.08 4.54-0.02 7.27 0.07 14.11c0.01 0.69 0.28 1.34 0.76 1.82l29.19 29.19c0.2 0.2 0.2 0.52 0 0.72zm-61.05 2.14 5.57 5.67q1.94 1.97 3.52-0.34 2.03-2.96 4.05-1.03 1.26 1.21 1.85 1.87 0.93 1.04 1.05 2.54l-2.63 2.7c-0.22 0.22-0.34 0.55-0.32 0.89q0.05 1.45 1.41 2.2l7.98 8.07c0.51 0.51 1.32 0.53 1.86 0.05q4.95-4.38 9.64-9.68 0.44-0.51-0.19-0.98-1.01-1.93-2.75-3.25-0.42-0.88 0.29-1.71 1.25-1.1 2.35-2.36 2.13-2.42 4.24 0.78 1.46 2.2 3.21 0.47l4.95-4.89 3.61-3.6q1.44-1.43-0.1-2.98l-8.24-8.24c-0.7-0.7-1.82-0.73-2.55-0.07q-3.85 3.46-7.5 7.23-0.05 0.06-0.95 0.89-2.14 1.95 0.55 3.9 1.38 1 1.68 2.62l-4.08 4.25q-1.36 0.03-2.4-1.31-2.58-3.35-5.44 0.41c-0.55 0.73-1.57 0.93-2.36 0.47q-2.32-1.37-3.8-4.57 1.9-1.58 3.01-3.74c0.13-0.27 0.1-0.59-0.09-0.83q-4.06-4.98-9.16-9.3c-0.76-0.64-1.88-0.6-2.58 0.11l-8.25 8.24q-1.52 1.52-0.12 2.89z" fill="#fff"/>
<path d="m238.96 243.5q-7.25-0.54-14.5 0l-2.69-2.63q-1.4-1.37 0.12-2.89l8.25-8.24c0.7-0.71 1.82-0.75 2.58-0.11q5.1 4.32 9.16 9.3c0.19 0.24 0.22 0.56 0.09 0.83q-1.11 2.16-3.01 3.74z" fill="#6dd5e9"/>
<path d="m270.54 244.5q-6.75-0.75-13.5-0.25-0.3-1.62-1.68-2.62-2.69-1.95-0.55-3.9 0.9-0.83 0.95-0.89 3.65-3.77 7.5-7.23c0.73-0.66 1.85-0.63 2.55 0.07l8.24 8.24q1.54 1.55 0.1 2.98z" fill="#6dd5e9"/>
<path d="m238.96 243.5q1.48 3.2 3.8 4.57c0.79 0.46 1.81 0.26 2.36-0.47q2.86-3.76 5.44-0.41 1.04 1.34 2.4 1.31 0.52 0.58 1.28 0.44 2.25-0.41 1.55 1.56-0.71 0.83-0.29 1.71-1.79 1.92-4.81 1.6-1.27-0.13-5.69-0.06-3 0.05-4.5-1.54-0.12-1.5-1.05-2.54-0.59-0.66-1.85-1.87-2.02-1.93-4.05 1.03-1.58 2.31-3.52 0.34l-5.57-5.67q7.25-0.54 14.5 0z" fill="#45c9e3"/>
<path d="m270.54 244.5-4.95 4.89q-1.75 1.73-3.21-0.47-2.11-3.2-4.24-0.78-1.1 1.26-2.35 2.36 0.7-1.97-1.55-1.56-0.76 0.14-1.28-0.44l4.08-4.25q6.75-0.5 13.5 0.25z" fill="#45c9e3"/>
<path d="m240.5 252.21q1.5 1.59 4.5 1.54 4.42-0.07 5.69 0.06 3.02 0.32 4.81-1.6 1.74 1.32 2.75 3.25-1.35-0.14-1.75 1.3c-0.2 0.71-0.89 1.19-1.69 1.2l-15.85 0.04q-1.36-0.75-1.41-2.2c-0.02-0.34 0.1-0.67 0.32-0.89z" fill="#2ac1df"/>
<path d="m258.25 255.46q0.63 0.47 0.19 0.98-4.69 5.3-9.64 9.68c-0.54 0.48-1.35 0.46-1.86-0.05l-7.98-8.07 15.85-0.04c0.8-0.01 1.49-0.49 1.69-1.2q0.4-1.44 1.75-1.3z" fill="#18bbdc"/>
</g>
<g transform="matrix(1.1244 0 0 1.1244 10.569 -206.53)" fill="#023e8a" font-family="'DejaVu Sans'" font-size="40px">
<text x="141.26328" y="401.86758" style="line-height:1.25" xml:space="preserve"><tspan x="141.26328" y="401.86758" fill="#023e8a" font-family="'DejaVu Sans'" font-size="40px" font-stretch="semi-condensed" font-weight="bold" style="font-variant-caps:normal;font-variant-east-asian:normal;font-variant-ligatures:normal;font-variant-numeric:normal">Liquidity</tspan></text>
<text x="319.20248" y="401.86758" font-stretch="semi-condensed" style="font-variant-caps:normal;font-variant-east-asian:normal;font-variant-ligatures:normal;font-variant-numeric:normal;line-height:1.25" xml:space="preserve"><tspan x="319.20248" y="401.86758" fill="#023e8a" font-family="'DejaVu Sans'" font-size="40px" font-stretch="semi-condensed" style="font-variant-caps:normal;font-variant-east-asian:normal;font-variant-ligatures:normal;font-variant-numeric:normal">Labs</tspan></text>
</g>
</svg>
